<svg version="1.1" xmlns="http://www.w3.org/2000/svg" xmlns:xlink="http://www.w3.org/1999/xlink" width="50" height="50" viewBox="0 0 50 50" fill="white">
<g>
</g>
	<path d="M49.544 40.169c-0-0-0-0-0.001-0l-15.168-15.168 15.168-15.168c0-0 0-0 0.001-0 0.163-0.163 0.281-0.354 0.357-0.557 0.207-0.555 0.089-1.205-0.358-1.652l-7.165-7.165c-0.447-0.447-1.096-0.565-1.652-0.357-0.203 0.076-0.394 0.194-0.558 0.357 0 0-0 0-0 0l-15.168 15.169-15.168-15.168c-0-0-0-0-0-0-0.163-0.163-0.354-0.281-0.557-0.357-0.556-0.207-1.205-0.089-1.652 0.357l-7.165 7.165c-0.447 0.447-0.565 1.096-0.358 1.652 0.076 0.203 0.194 0.394 0.357 0.557 0 0 0 0 0 0l15.168 15.168-15.168 15.169c-0 0-0 0-0 0-0.163 0.163-0.281 0.354-0.357 0.557-0.207 0.555-0.089 1.205 0.358 1.652l7.165 7.165c0.447 0.447 1.096 0.565 1.652 0.358 0.203-0.076 0.394-0.194 0.557-0.357 0-0 0-0 0-0l15.168-15.168 15.168 15.168c0 0 0 0 0.001 0 0.163 0.163 0.354 0.281 0.557 0.357 0.556 0.207 1.205 0.089 1.652-0.358l7.165-7.165c0.447-0.447 0.565-1.096 0.358-1.652-0.076-0.203-0.194-0.394-0.357-0.557z" ></path>
</svg>